Patient4_TMGait_0pt2_03_left_14_GRF.mot
version=1
nRows=26
nColumns=19
inDegrees=no
endheader
time	F1x	F1y	F1z	M1x	M1y	M1z	F2x	F2y	F2z	M2x	M2y	M2z	EC1x	EC1y	EC1z	EC2x	EC2y	EC2z
28.84	-1.3692	20.0287	2.2932	-7.2592	-2.7603	18.7234	-21.9483	723.0225	-33.7038	251.9714	51.1106	814.9426	-0.0592	0.0182	-0.0073	-0.0462	0.0165	0.9585
28.8619	-2.2937	16.6545	1.9432	-6.0163	-2.7492	15.8815	-23.5017	743.6888	-34.5669	259.2453	52.5266	840.0556	-0.0592	0.0182	-0.0073	-0.0462	0.0165	0.9585
28.8839	-2.8102	12.8429	1.5665	-4.6292	-2.5633	12.478	-25.6287	769.4993	-35.8871	268.2488	54.5553	870.7219	-0.0592	0.0182	-0.0073	-0.0462	0.0165	0.9585
28.9058	-2.8033	8.9654	1.176	-3.2323	-2.1723	8.8671	-28.1988	798.9454	-37.6814	278.4333	57.156	905.0551	-0.0592	0.0182	-0.0073	-0.0462	0.0165	0.9585
28.9277	-2.4185	5.4929	0.8145	-1.9907	-1.6718	5.5475	-30.9834	829.5621	-39.8472	288.9393	60.1267	940.1511	-0.0592	0.0182	-0.0073	-0.0462	0.0165	0.9585
28.9496	-1.8808	2.7184	0.52099	-1.0068	-1.1834	2.8577	-33.6628	858.4345	-42.1512	298.7739	63.095	972.6148	-0.0592	0.0182	-0.0073	-0.0462	0.0165	0.9585
28.9716	-1.336	0.6945	0.30456	-0.29629	-0.77013	0.87454	-35.8771	882.7918	-44.2838	307.0087	65.5935	999.2181	-0.0592	0.0182	-0.0073	-0.0462	0.0165	0.9585
28.9935	-0.86411	-0.67124	0.15627	0.17799	-0.45078	-0.48863	-37.3004	900.3477	-45.9311	312.8877	67.1687	1017.3037	-0.0592	0.0182	-0.0073	-0.0462	0.0165	0.9585
29.0154	-0.49665	-1.5472	0.060289	0.47918	-0.21822	-1.397	-37.6607	909.456	-46.8425	315.8696	67.4727	1024.9866	-0.0592	0.0182	-0.0073	-0.0462	0.0165	0.9585
29.0374	-0.234	-2.1321	-0.0044658	0.68168	-0.049897	-2.054	-36.7632	909.2042	-46.8899	315.6544	66.3304	1021.2692	-0.0592	0.0182	-0.0073	-0.0462	0.0165	0.9585
29.0593	-0.057724	-2.6238	-0.058989	0.85863	0.081697	-2.6708	-34.5148	899.505	-46.0946	312.2156	63.7666	1006.1394	-0.0592	0.0182	-0.0073	-0.0462	0.0165	0.9585
29.0812	0.06028	-3.1957	-0.12006	1.073	0.20199	-3.43	-30.9185	881.1509	-44.6032	305.822	59.9768	980.6162	-0.0592	0.0182	-0.0073	-0.0462	0.0165	0.9585
29.1031	0.15254	-3.9762	-0.20003	1.3717	0.33478	-4.4599	-26.0482	855.7408	-42.6522	297.0163	55.2741	946.6426	-0.0592	0.0182	-0.0073	-0.0462	0.0165	0.9585
29.1251	0.24881	-5.0286	-0.30361	1.7755	0.49421	-5.814	-20.0346	825.4628	-40.5311	286.5432	50.039	906.8201	-0.0592	0.0182	-0.0073	-0.0462	0.0165	0.9585
29.147	0.37095	-6.3215	-0.42546	2.2719	0.68002	-7.4307	-13.0946	792.8212	-38.5317	275.26	44.672	864.0983	-0.0592	0.0182	-0.0073	-0.0462	0.0165	0.9585
29.1689	0.52978	-7.6868	-0.55173	2.8022	0.87615	-9.0847	-5.5413	760.4465	-36.8949	264.0753	39.5402	821.5587	-0.0592	0.0182	-0.0073	-0.0462	0.0165	0.9585
29.1909	0.72355	-8.7643	-0.65349	3.2386	1.0453	-10.3267	2.2493	730.9317	-35.7761	253.8924	34.9355	782.217	-0.0592	0.0182	-0.0073	-0.0462	0.0165	0.9585
29.2128	0.93724	-8.9516	-0.68006	3.3596	1.1205	-10.4207	9.8727	706.5615	-35.2446	245.511	31.0694	748.7192	-0.0592	0.0182	-0.0073	-0.0462	0.0165	0.9585
29.2347	1.1358	-7.3665	-0.55727	2.8386	0.9987	-8.3028	16.9219	688.9292	-35.3102	239.4883	28.0923	722.9297	-0.0592	0.0182	-0.0073	-0.0462	0.0165	0.9585
29.2566	1.2549	-2.8455	-0.18315	1.2408	0.53367	-2.5837	23.0194	678.5271	-35.95	235.9933	26.1091	705.5088	-0.0592	0.0182	-0.0073	-0.0462	0.0165	0.9585
29.2786	1.1879	5.9851	0.5651	-1.9523	-0.45748	8.3591	27.8594	674.4571	-37.0995	234.7055	25.1546	695.6142	-0.0592	0.0182	-0.0073	-0.0462	0.0165	0.9585
29.3005	0.78599	20.5309	1.8122	-7.281	-2.1735	26.1603	31.2402	674.4382	-38.6252	234.8206	25.1539	690.9176	-0.0592	0.0182	-0.0073	-0.0462	0.0165	0.9585
29.3224	-0.13496	41.8996	3.6593	-15.1896	-4.799	52.0524	33.0784	675.1773	-40.2981	235.1831	25.8957	688.005	-0.0592	0.0182	-0.0073	-0.0462	0.0165	0.9585
29.3444	-1.7058	70.479	6.1669	-25.8648	-8.4488	86.3539	33.419	673.0373	-41.8085	234.5227	27.0505	683.0797	-0.0592	0.0182	-0.0073	-0.0462	0.0165	0.9585
29.3663	-3.842	105.597	9.3239	-39.0951	-13.0651	128.0801	32.4623	664.8599	-42.8268	231.7394	28.2218	672.8165	-0.0592	0.0182	-0.0073	-0.0462	0.0165	0.9585
29.3882	-6.2687	145.3389	13.0325	-54.1903	-18.4069	174.7698	30.5443	648.6149	-43.0864	226.1248	29.0371	655.038	-0.0592	0.0182	-0.0073	-0.0462	0.0165	0.9585
